<svg xmlns="http://www.w3.org/2000/svg" viewBox="0 0 563 102"><style>@-webkit-keyframes el_CQJVjwthIy_Animation{52.50%{opacity: 1;}60%{opacity: 0;}67.50%{opacity: 1;}}@keyframes el_CQJVjwthIy_Animation{52.50%{opacity: 1;}60%{opacity: 0;}67.50%{opacity: 1;}}@-webkit-keyframes el_PXDFd557SK_Animation{37.50%{opacity: 1;}45%{opacity: 0;}67.50%{opacity: 0;}75%{opacity: 1;}100%{opacity: 1;}}@keyframes el_PXDFd557SK_Animation{37.50%{opacity: 1;}45%{opacity: 0;}67.50%{opacity: 0;}75%{opacity: 1;}100%{opacity: 1;}}@-webkit-keyframes el_EIp8raAaLg_Animation{7.50%{opacity: 1;}15%{opacity: 0;}22.50%{opacity: 1;}30%{opacity: 0;}75%{opacity: 0;}82.50%{opacity: 1;}}@keyframes el_EIp8raAaLg_Animation{7.50%{opacity: 1;}15%{opacity: 0;}22.50%{opacity: 1;}30%{opacity: 0;}75%{opacity: 0;}82.50%{opacity: 1;}}#el_uv3qKLqaZ *{-webkit-animation-duration: 4s;animation-duration: 4s;-webkit-animation-iteration-count: infinite;animation-iteration-count: infinite;-webkit-animation-timing-function: cubic-bezier(0, 0, 1, 1);animation-timing-function: cubic-bezier(0, 0, 1, 1);}#el_7mr1wsXazl{fill: #fff;}#el_idqH1UHHzL{fill: #231f20;}#el_Vub3Lg9mrK{fill: #fff;}#el_arwV8Rmnhy{fill: #fff;}#el_My3SudBQ6X{fill: #fff;}#el_aF4tJ5MaTB{fill: #231f20;font-size: 66.96px;font-family:&quot;FuturaPT Book&quot;, HelveticaNeueLTStd-Md, Helvetica Neue LT Std, sans-serif;font-weight: 500;-webkit-transform: translate(237.58px, 73.81px) scale(0.75, 1);transform: translate(237.58px, 73.81px) scale(0.75, 1);}#el_8frVhgtj0H{letter-spacing: -0.03em;}#el_zUr8mdxT6Z{fill: none;}#el_7LTwDY_hZL{fill: #fff;}#el_CQJVjwthIy{fill: #fff;-webkit-animation-name: el_CQJVjwthIy_Animation;animation-name: el_CQJVjwthIy_Animation;opacity: 1;}#el_PXDFd557SK{fill: #fff;-webkit-animation-name: el_PXDFd557SK_Animation;animation-name: el_PXDFd557SK_Animation;opacity: 1;}#el_EIp8raAaLg{fill: #fff;-webkit-animation-name: el_EIp8raAaLg_Animation;animation-name: el_EIp8raAaLg_Animation;opacity: 1;}</style><title>camoptions-animloopfixed</title><g id="el_qnLxNpaB8L"><g id="el_neqB-r4czC"><path id="el_7mr1wsXazl" d="M0 .67h102v102H0z"/><path id="el_idqH1UHHzL" d="M5 5.33h92.67V98H5z"/><path id="el_Vub3Lg9mrK" d="M6.77 61.47S18.6 30.77 32 51.55c0 0 13.75 26.86 31.34 7.36s32.3 12.16 32.3 12.16V96H6.77z"/><path id="el_arwV8Rmnhy" d="M182.15 33a4.45 4.45 0 0 1 4.1 2.34 4.37 4.37 0 0 1 0 4.7l-34.38 59.35a4.77 4.77 0 0 1-7.8.58 4.55 4.55 0 0 1-.8-4.1l9-37.9H129a4.43 4.43 0 0 1-3.5-1.56 4.7 4.7 0 0 1-1.2-3.7l6.26-46.88a4.35 4.35 0 0 1 1.57-2.93 4.66 4.66 0 0 1 3.12-1.16h26.56a4.37 4.37 0 0 1 3.72 1.85 4.45 4.45 0 0 1 .8 4L159.67 33z"/><path id="el_My3SudBQ6X" d="M208.08 0h174.67v102H208.08z"/><text id="el_aF4tJ5MaTB"><tspan id="el_8frVhgtj0H">A</tspan><tspan id="el_Hl324qtTHm" x="42.99" y="0">WB</tspan></text><path id="el_zUr8mdxT6Z" d="M435.1 41.4h-7.56V56.5h7.56v15.12h70.23v-44.8h43.2v-.57H435.1V41.4z"/><path id="el_7LTwDY_hZL" d="M560.36 14.45a11 11 0 0 0-8-3.3h-121A11.3 11.3 0 0 0 420 22.48v3.77h-1.9a5.63 5.63 0 0 0-5.66 5.67V66a5.63 5.63 0 0 0 5.67 5.67h1.9v3.78a11.3 11.3 0 0 0 11.34 11.35h121a11.3 11.3 0 0 0 11.35-11.35V22.5a11 11 0 0 0-3.34-8.05zm-11.82 12.38v44.8H435.1v-15.1h-7.56V41.38h7.56V26.26h113.44z"/><path id="el_CQJVjwthIy" d="M510.73 33.83h30.25v30.25h-30.25z"/><path id="el_PXDFd557SK" d="M475.48 33.83h30.25v30.25h-30.25z"/><path id="el_EIp8raAaLg" d="M440.23 33.83h30.25v30.25h-30.25z"/></g></g></svg>