<svg xmlns="http://www.w3.org/2000/svg" viewBox="0 0 91.6 18.6" enable-background="new 0 0 91.6 18.6"><style type="text/css">.st0{enable-background:new ;} .st1{fill:#E3C00E;}</style><title>rating_4</title><g class="st0"><path d="M8.1 1.1c.1-.3.3-.4.5-.5s.5-.1.7 0 .4.3.5.5l2 4.1 4.6.7c.3 0 .5.2.6.4s.2.4.2.7-.1.5-.3.7l-3.3 3.2.8 4.6c0 .3 0 .5-.1.7s-.3.4-.6.4-.5 0-.7-.1l-4-2.2-4.1 2.1c-.2.1-.5.2-.7.1s-.4-.2-.6-.4-.2-.5-.1-.7l.8-4.6L.9 7.6C.8 7.5.7 7.2.6 7s.1-.5.2-.7.4-.3.7-.4l4.6-.7 2-4.1zM32.3 1.1c.1-.3.3-.4.5-.5s.5-.1.7 0 .4.3.5.5l2 4.1 4.6.7c.3 0 .5.2.6.4s.2.4.2.7-.1.5-.3.7L38 10.9l.8 4.6c0 .3 0 .5-.1.7s-.3.4-.6.4-.5 0-.7-.1l-4.1-2.1-4.1 2.1c-.2.1-.5.2-.7.1s-.4-.2-.6-.4-.2-.5-.1-.7l.8-4.6-3.3-3.2c-.3-.2-.4-.5-.4-.7s.1-.5.2-.7.4-.3.6-.4l4.6-.7 2-4.1zM56.6 1.1c.1-.3.3-.4.5-.5s.5-.1.7 0 .4.3.5.5l2 4.1 4.7.7c.3 0 .5.2.6.4s.2.4.2.7-.1.5-.3.7l-3.3 3.2.8 4.6c0 .3 0 .5-.1.7s-.3.4-.6.4-.5 0-.7-.1l-4.1-2.1-4.1 2.1c-.2.1-.5.2-.7.1s-.4-.2-.6-.4-.2-.5-.1-.7l.8-4.6-3.3-3.2c-.2-.2-.3-.4-.3-.7s.1-.5.2-.7.3-.3.6-.4l4.6-.7 2-4.1zM80.8 1.1c.1-.3.3-.4.5-.5s.5-.1.7 0 .4.3.5.5l2 4.1 4.6.7c.3 0 .5.2.6.4s.2.4.2.7.1.5-.1.6l-3.3 3.2.8 4.6c0 .3 0 .5-.1.7s-.3.4-.6.4-.5 0-.7-.1l-4.1-2.1-4.1 2.1c-.2.1-.5.2-.7.1s-.4-.2-.6-.4-.2-.5-.1-.7l.8-4.6-3.3-3.2c-.2-.2-.3-.4-.3-.7s.1-.5.2-.7.3-.2.6-.3l4.6-.7 1.9-4.1z" class="st1"/></g></svg>