<svg xmlns="http://www.w3.org/2000/svg" viewBox="0 0 501.14 496.43"><defs><style>.cls-1{fill:#1d1d1b;}.cls-2{fill:#fff;}.cls-3{fill:#d7b500;}</style></defs><title>vidicon-nonanim</title><g id="Layer_2"><g id="Layer_1-2"><path d="M501.14 248.2c0 11.83-12.8 22.6-14.42 34-1.66 11.66 7.58 25.6 4.33 36.65-3.3 11.26-18.62 18-23.43 28.5s.05 26.63-6.23 36.38-22.92 11.95-30.54 20.73-7.4 25.52-16.2 33.16-25.3 5-35.1 11.34-14.24 22.4-24.87 27.26-25.64-2.33-36.9 1c-11.06 3.25-19.9 17.44-31.57 19.1-11.37 1.63-23.84-9.5-35.66-9.5s-24.3 11.13-35.66 9.5c-11.64-1.66-20.5-15.85-31.56-19.1-11.26-3.3-26.37 3.85-36.9-1s-15.1-21-24.85-27.26-26.34-3.73-35.12-11.35-8.57-24.34-16.2-33.14-24.2-10.95-30.53-20.76-1.37-25.7-6.23-36.37-20.13-17.25-23.43-28.5c-3.26-11.07 6-25 4.32-36.65C12.8 270.8 0 260 0 248.2s12.8-22.58 14.42-34c1.66-11.65-7.58-25.57-4.33-36.64 3.3-11.25 18.6-18 23.42-28.5s-.05-26.62 6.23-36.37 22.9-12 30.53-20.74 7.4-25.53 16.2-33.16 25.3-5 35.1-11.34 14.24-22.4 24.88-27.27 25.62 2.32 36.88-1C194.4 16 203.26 1.8 214.9.15c11.38-1.62 23.85 9.5 35.67 9.5s24.3-11.12 35.66-9.5c11.66 1.66 20.5 15.84 31.57 19.1 11.26 3.3 26.37-3.84 36.9 1s15.1 21 24.85 27.27 26.33 3.73 35.1 11.34 8.58 24.33 16.2 33.13 24.22 10.92 30.54 20.73 1.36 25.73 6.22 36.37 20.13 17.25 23.43 28.5c3.25 11.07-6 25-4.33 36.65 1.62 11.37 14.42 22.14 14.42 33.96z" class="cls-1"/><path d="M299.22 350.8l-124.72.4a24.14 24.14 0 0 1-24.16-24.06l-.3-90.3a24.15 24.15 0 0 1 24-24.22l124.72-.4a24.15 24.15 0 0 1 24.17 24.07v13l28.34-20.2a17.1 17.1 0 0 1 23.9 4.1 17.2 17.2 0 0 1 3.17 9.86l.27 83.34a17.16 17.16 0 0 1-27.85 13.52l-27.6-19.4v6.06a24.15 24.15 0 0 1-23.93 24.23zM286.8 203a44.9 44.9 0 1 1 44.63-45 44.88 44.88 0 0 1-44.64 45zm-.27-82.6a37.72 37.72 0 1 0 37.75 37.6 37.72 37.72 0 0 0-37.75-37.6zm-97.12 82.9a44.9 44.9 0 1 1 44.64-45 44.88 44.88 0 0 1-44.63 45zm-.26-82.6a37.72 37.72 0 1 0 37.75 37.6 37.72 37.72 0 0 0-37.76-37.6zm97.58 59.76A22.36 22.36 0 1 1 309 158a22.35 22.35 0 0 1-22.28 22.46zm-.12-37.55a15.2 15.2 0 1 0 15.2 15.16 15.2 15.2 0 0 0-15.2-15.15zm-97.27 37.88a22.36 22.36 0 1 1 22.24-22.43 22.35 22.35 0 0 1-22.24 22.43zm-.12-37.55a15.2 15.2 0 1 0 15.22 15.14 15.18 15.18 0 0 0-15.2-15.14z" class="cls-2"/><path d="M286.66 183.64a25.22 25.22 0 1 1 25.15-25.22 25.22 25.22 0 0 1-25.14 25.22zm0-39.9a14.7 14.7 0 1 0 14.65 14.68 14.7 14.7 0 0 0-14.64-14.7zM189.26 183.33a25.22 25.22 0 1 1 25.16-25.22 25.22 25.22 0 0 1-25.16 25.23zm0-39.9a14.7 14.7 0 1 0 14.66 14.68 14.7 14.7 0 0 0-14.66-14.68z" class="cls-3"/></g></g></svg>