<svg xmlns="http://www.w3.org/2000/svg" viewBox="0 0 289.21 284.48"><defs><style>.cls-1{fill:#fff;}.cls-2,.cls-3{fill:none;stroke:#cb9904;stroke-miterlimit:10;}.cls-2{stroke-width:2px;}.cls-3{stroke-width:0.75px;stroke-dasharray:2.51 2.51 2.51 2.51 2.51 2.51;}.cls-4{fill:#d6b218;}</style></defs><title>Asset 1</title><g id="Layer_2"><g id="Layer_1-2"><path d="M289.2 145.32c0 6.5-12.4 12-13.3 18.3-.92 6.4 9.43 15.2 7.65 21.3s-15.3 8-17.94 13.8 4.76 17.22 1.3 22.58-16.9 3.34-21.1 8.17-.25 17.86-5.1 22.05-17.15-1.55-22.54 1.92-5.24 17.06-11.1 19.74-16-6.34-22.16-4.53-9.82 14.87-16.23 15.78c-6.25.9-13.5-10.6-20-10.6s-13.74 11.5-20 10.6c-6.4-.9-10.13-14-16.22-15.78s-16.4 7.17-22.18 4.52-5.7-16.27-11.07-19.73-17.72 2.27-22.55-1.92-.9-17.2-5.1-22.05-17.63-2.77-21.1-8.17 4-16.74 1.3-22.6-16.13-7.6-17.94-13.78 8.57-14.9 7.66-21.3c-.9-6.26-13.3-11.8-13.3-18.3s12.4-12 13.3-18.3c.9-6.4-9.44-15.22-7.65-21.3s15.3-8 17.95-13.8-4.75-17.23-1.3-22.6 16.9-3.32 21.1-8.16.26-17.85 5.1-22 17.15 1.5 22.55-1.97 5.23-17.07 11.1-19.74 16 6.34 22.16 4.52 9.8-14.87 16.22-15.78c6.26-.9 13.5 10.6 20 10.6s13.74-11.5 20-10.6c6.4.9 10.14 14 16.23 15.78s16.4-7.17 22.18-4.52 5.72 16.28 11.1 19.73 17.7-2.28 22.54 1.9.9 17.22 5.1 22 17.63 2.78 21.1 8.18-4 16.74-1.3 22.6 16.12 7.6 17.94 13.8S275 120.6 275.9 127c.9 6.27 13.3 11.82 13.3 18.32z" class="cls-1"/><circle cx="148.03" cy="144.67" r="115.29" class="cls-2"/><circle cx="148.03" cy="144.67" r="120.04" class="cls-3"/><path d="M106.07 103.92a7.53 7.53 0 0 1-4.9 1.9 8.4 8.4 0 0 1-5.38-2.4l-.38 1.8h-6.5l6.14-28.8 6.7-.88-5.44 25.38a4.35 4.35 0 0 0 2.6.9 4.8 4.8 0 0 0 3.64-1.8q3.12-3.52 4.42-11.13a40.16 40.16 0 0 0 .62-7q0-8.57-6.6-8.57a12.28 12.28 0 0 0-8.52 3 10.2 10.2 0 0 0-3.34 8 5.86 5.86 0 0 0 .5 2.76.68.68 0 0 1 .12.3q-3.58 0-4.5-2.23A5.9 5.9 0 0 1 84.9 83a7.5 7.5 0 0 1 .6-2.84 10.44 10.44 0 0 1 1.72-2.8A16 16 0 0 1 93.38 73a20.8 20.8 0 0 1 8.38-1.7q8.16 0 10.92 6.6a17.07 17.07 0 0 1 1.17 6.6 28.92 28.92 0 0 1-1 7.63q-2.18 8-6.78 11.8zM128.66 97.12q-2.9 8.37-9.75 8.37a4.6 4.6 0 0 1-3.2-1.3 5.36 5.36 0 0 1-1.38-4.12 14.93 14.93 0 0 1 .35-3l3.07-14.53h6.52L121 98a8.08 8.08 0 0 0-.17 1.6q0 1.54 1.83 1.54a3.46 3.46 0 0 0 2.47-1.15 6.5 6.5 0 0 0 1.62-2.86zm-2.8-20.54a3.35 3.35 0 0 1-1.08 2.53 3.53 3.53 0 0 1-2.56 1 3.55 3.55 0 0 1-3.57-3.55 3.53 3.53 0 0 1 1-2.55 3.35 3.35 0 0 1 2.57-1 3.62 3.62 0 0 1 3.64 3.62zM137.64 103a7.32 7.32 0 0 1-5.44 2.47 5.43 5.43 0 0 1-5.53-3.86 9.23 9.23 0 0 1-.5-3.17 20.47 20.47 0 0 1 .3-3.56 20.2 20.2 0 0 1 1-3.54 16.75 16.75 0 0 1 4-6.44 8.8 8.8 0 0 1 6.35-2.55 4.75 4.75 0 0 1 2.8.65 2 2 0 0 1 .87 1.65v.27l.48-2.35h6.52l-4.5 21a8.06 8.06 0 0 0 3.4-2.1 11.6 11.6 0 0 0 2.32-4.37h1.9q-1.73 5.84-5.84 7.7a13.43 13.43 0 0 1-2.16.76l-.7 3.27q-.84 4.37-3.44 6.28a7.13 7.13 0 0 1-4.35 1.43 6.55 6.55 0 0 1-3.94-1.1 4 4 0 0 1-1.5-3.43q0-4.12 7.4-6.6zm-1 4.66q-4.43 1.6-4.42 3.85a1.45 1.45 0 0 0 .86 1.36 2.23 2.23 0 0 0 .84.13c.37 0 .8-.34 1.28-1a8.1 8.1 0 0 0 1.18-3zm4.44-20.82a1.53 1.53 0 0 0-.95-1.48 1.82 1.82 0 0 0-.9-.2 3.47 3.47 0 0 0-2.63 1.35q-2.88 3.25-3.6 9.34a17.27 17.27 0 0 0-.12 2 3.8 3.8 0 0 0 .84 2.8 1.67 1.67 0 0 0 1.2.5 3.42 3.42 0 0 0 2.34-1 5.2 5.2 0 0 0 1.53-2.57zM163.7 97.12q-2.92 8.37-9.75 8.37a4.6 4.6 0 0 1-3.2-1.3 5.37 5.37 0 0 1-1.4-4.12 14.3 14.3 0 0 1 .36-3l3.08-14.53h6.52L156.05 98a7.43 7.43 0 0 0-.18 1.6c0 1 .62 1.54 1.84 1.54a3.45 3.45 0 0 0 2.47-1.15 6.6 6.6 0 0 0 1.63-2.86zm-2.8-20.54a3.38 3.38 0 0 1-1.08 2.53 3.55 3.55 0 0 1-2.56 1 3.44 3.44 0 0 1-2.53-1 3.4 3.4 0 0 1-1-2.5 3.56 3.56 0 0 1 1-2.56 3.38 3.38 0 0 1 2.53-1.04 3.62 3.62 0 0 1 3.63 3.62zM175.8 97.12q-2.92 8.37-9.76 8.37a4.6 4.6 0 0 1-3.2-1.3 5.36 5.36 0 0 1-1.4-4.12 14.22 14.22 0 0 1 .36-3l2.72-12.7H163l.37-1.83h1.48l1.37-6.25 6.7-.9-1.55 7.15h2.72l-.36 1.82H171L168.14 98a7.4 7.4 0 0 0-.17 1.6q0 1.54 1.83 1.54a3.46 3.46 0 0 0 2.47-1.15 6.6 6.6 0 0 0 1.62-2.86zM199.6 97.12q-2.88 8.37-9.1 8.37-4 0-4.43-4.16c-2 2.77-4.28 4.15-6.9 4.15a5.32 5.32 0 0 1-5.37-3.87 9.22 9.22 0 0 1-.5-3.18 21.5 21.5 0 0 1 .3-3.56 22.1 22.1 0 0 1 1-3.55 16.88 16.88 0 0 1 4-6.44 8.8 8.8 0 0 1 6.34-2.53 4.75 4.75 0 0 1 2.8.65 2 2 0 0 1 .87 1.65V85l.5-2.4h6.52L192.37 98a6 6 0 0 0-.2 1.46c0 1.3.62 1.94 1.86 1.94 1.6 0 2.83-1.42 3.67-4.26zM188.2 86.9a2.34 2.34 0 0 0-.4-1.07 1.8 1.8 0 0 0-1.64-.65 3.33 3.33 0 0 0-2.45 1.35q-2.87 3.24-3.6 9.33a17.27 17.27 0 0 0-.1 2 3.8 3.8 0 0 0 .83 2.8 1.68 1.68 0 0 0 1.22.5 3.43 3.43 0 0 0 2.45-1.16 5.7 5.7 0 0 0 1.5-2.88zM207.07 100.74a4.94 4.94 0 0 1-1.6 3.52 5.1 5.1 0 0 1-3.42 1.23 4.85 4.85 0 0 1-3.4-1.3c-.93-.86-1.4-2.27-1.4-4.23a14.2 14.2 0 0 1 .36-2.94l4.85-22.68 6.7-.9L204 97.88a6.65 6.65 0 0 0-.2 1.45 1.88 1.88 0 0 0 .4 1.15 1.57 1.57 0 0 0 1.32.53 4.26 4.26 0 0 0 1.55-.3zM96.13 228.25v-81.17c0-2.2-.4-3.77-1.2-4.72s-2.25-1.43-4.35-1.43a7.86 7.86 0 0 1 2.1-6.15q2.25-2.25 7.2-2.25t7.05 4.95q5.85-4.95 12-4.95 14.87 0 14.86 14.7v36.9q0 7.53-5.2 11.72t-14 4.2H108V216l.6 14.1a70.44 70.44 0 0 1-10 .76c-1.67-.05-2.47-.86-2.47-2.6zm20-85.82q-4 0-8.1 4v43.66h6.9a7.86 7.86 0 0 0 5.1-1.58 5.38 5.38 0 0 0 2-4.43v-36q-.1-5.67-5.95-5.67zM143.1 228.25v-81.62l-.6-14.1a69 69 0 0 1 10-.75q2.4 0 2.4 2.55V216l.6 14.1a70.44 70.44 0 0 1-10 .76c-1.6-.05-2.4-.86-2.4-2.6zM185.7 179.34a32.5 32.5 0 0 0 8.1-.75 29.94 29.94 0 0 1 1.2 8.24q0 2.4-2.1 2.4h-8.85a7.35 7.35 0 0 0-5 1.66 5.5 5.5 0 0 0-1.87 4.35v20.4a5.47 5.47 0 0 0 1.87 4.43 7.57 7.57 0 0 0 5 1.57 7.86 7.86 0 0 0 5.1-1.57 5.38 5.38 0 0 0 1.95-4.43v-3.75l-.45-7.65a20 20 0 0 1 4.2-.45 15.23 15.23 0 0 1 4.2.6c2.6.7 3.9 1.95 3.9 3.75v9.6a11.92 11.92 0 0 1-5.1 10q-5.1 3.83-13.72 3.83t-13.73-4.2c-3.4-2.8-5.1-6.7-5.1-11.7v-21c0-4.52 1.44-8 4.35-10.37-2.9-2.4-4.35-5.84-4.35-10.34v-27c0-5 1.7-8.9 5.1-11.7S178.32 131 184 131s10.12 1.27 13.42 3.82a12 12 0 0 1 4.95 10v12.6q0 2.7-3.9 3.76a15.23 15.23 0 0 1-4.2.6 20 20 0 0 1-4.2-.45 61.8 61.8 0 0 0 .45-7.66v-6.75q0-6-6.6-6a7.26 7.26 0 0 0-5 1.58 5.56 5.56 0 0 0-1.8 4.42v26.4a5.74 5.74 0 0 0 1.72 4.36 6.35 6.35 0 0 0 4.58 1.65zM77.22 121.26h141.3M77.22 65.64h141.3" class="cls-4"/><path d="M233.92 25c-4-4.1-4.7-9.5-.44-11.8 5-2.12 12.5-.45 15.66 3.47 2.58 3.8.38 8.53-3.76 10.84-3.44 2.5-8.05 1.5-11.46-2.5zM269.83 51.54c0 3.8-2.3 6.9-5.17 6.9s-6.1-.95-7.27-2.12 1.15-4.26 5.16-6.9 7.27-1.7 7.27 2.12zM283.2 55.64c0 3.2-1.06 4.76-2.37 3.45a9.45 9.45 0 0 1-2.38-5.83c0-1.9 1.07-3.45 2.38-3.45s2.37 2.6 2.37 5.82zM105 .9c5.8 1.45 8.18 3.86 6.2 5.8a10.13 10.13 0 0 1-7.82 3.68c-3.7-.5-8.3-3.9-9.4-7.22C93.14 0 98.46-.84 105 .9zM1.57 92.48C-.68 90.23-.63 86.8 2.5 85c3.77-1.66 8.87-1.14 10.58 1 1.42 2.08-.7 5.07-3.92 6.85-2.6 1.9-5.62 1.82-7.6-.37zM29.75 56.5c-2.17 1.2-4.7 1-5.67 0s0-2.16 2.16-3.3c2.17-1.64 4.7-2.7 5.68-1.86s0 3.45-2.17 5.15zM6.4 123.3a4.17 4.17 0 0 1-4.7-.28c-.9-.84-.25-1.9 1.44-2.8 1.7-1.28 3.8-2 4.7-1.24s.27 3.02-1.43 4.3zM28.05 91.8a3.4 3.4 0 0 1-3.93-.6c-.9-.82-.6-1.78.68-2.47 1.27-.94 3-1.35 3.93-.6s.6 2.66-.68 3.66z" class="cls-1"/></g></g></svg>