<svg xmlns="http://www.w3.org/2000/svg" xmlns:xlink="http://www.w3.org/1999/xlink" viewBox="0 0 734.05 132.66"><defs><style>.cls-1{isolation:isolate;}.cls-13,.cls-2{fill:#808285;}.cls-3{fill:#003263;}.cls-14,.cls-4{fill:#fff;}.cls-10,.cls-13,.cls-15,.cls-5,.cls-6{opacity:0.6;}.cls-5{fill:url(#radial-gradient);}.cls-6{fill:url(#linear-gradient);}.cls-7{mask:url(#mask);}.cls-8{opacity:0.65;mix-blend-mode:screen;}.cls-9{fill:#ec008c;}.cls-10{fill:url(#linear-gradient-2);}.cls-11{fill:#bcbec0;}.cls-12{fill:#636466;}.cls-13,.cls-14{mix-blend-mode:multiply;}.cls-16{fill:url(#linear-gradient-3);}.cls-17{mask:url(#mask-2);}.cls-18{fill:url(#linear-gradient-4);}.cls-19{mask:url(#mask-3);}.cls-20{fill:url(#linear-gradient-5);}.cls-21{mask:url(#mask-4);}.cls-22{filter:url(#luminosity-invert);}</style><radialGradient id="radial-gradient" cx="6.22" cy="61.4" r="13.83" gradientUnits="userSpaceOnUse"><stop offset="0" stop-color="#00a7e0"/><stop offset="1" stop-color="#003263"/></radialGradient><linearGradient id="linear-gradient" x1="31.37" x2="30.5" y1="12.52" y2=".33" gradientUnits="userSpaceOnUse"><stop offset="0" stop-color="#00aeef"/><stop offset="1" stop-color="#003263"/></linearGradient><filter id="luminosity-invert" color-interpolation-filters="sRGB"><feColorMatrix values="-1 0 0 0 1 0 -1 0 0 1 0 0 -1 0 1 0 0 0 1 0"/></filter><linearGradient id="linear-gradient-2" x1="40.05" x2="30.32" y1="83.99" y2="28.84" gradientUnits="userSpaceOnUse"><stop offset="0" stop-color="#003263"/><stop offset=".76" stop-color="#00aeef"/><stop offset=".83" stop-color="#9ddcf9"/><stop offset=".89" stop-color="#00aeef"/><stop offset="1" stop-color="#003263"/></linearGradient><linearGradient id="linear-gradient-3" x1="75.03" x2="75.05" y1="70.38" y2="70.47" gradientUnits="userSpaceOnUse"><stop offset="0" stop-color="#fff"/><stop offset="1" stop-color="#58595b"/></linearGradient><linearGradient id="linear-gradient-4" x1="71.96" x2="98.02" y1="-14.7" y2="90.71" xlink:href="#linear-gradient-3"/><linearGradient id="linear-gradient-5" x1="77.55" x2="77.6" y1="68.43" y2="68.62" xlink:href="#linear-gradient-3"/></defs><title>002Asset 1</title><g class="cls-1"><g id="Layer_2"><g id="Layer_1-2"><path d="M135.6 111.12h13v1.44h-11.38V121h9.66v1.44h-9.66V131h11.34v1.44h-13zm23.9 2.78v18.58h-1.6v-21.36h1.6l12.34 18.5v-18.5h1.62v21.36h-1.62zm37 16.3a7.62 7.62 0 0 1-10.95.27c-2-1.95-2-3.87-2-8.67s0-6.72 2-8.67a7.48 7.48 0 0 1 5.34-2.2 7.23 7.23 0 0 1 7.27 6.25h-1.62a5.76 5.76 0 0 0-9.72-3.15c-1.53 1.53-1.65 3.2-1.65 7.77s.1 6.24 1.64 7.77a5.67 5.67 0 0 0 4 1.65 5.74 5.74 0 0 0 4.44-2.07 6.2 6.2 0 0 0 1.3-4.23V123h-5.74v-1.44h7.35V125a6.8 6.8 0 0 1-1.7 5.2zm11.8-19.08h1.6v21.36h-1.6zm14.18 2.78v18.58h-1.62v-21.36h1.62l12.33 18.5v-18.5h1.64v21.36h-1.62zm24.9-2.78h13v1.44H249V121h9.66v1.44H249V131h11.34v1.44h-13zm22.3 0h13v1.44H271.3V121h9.7v1.44h-9.66V131h11.34v1.44h-13zm29.78 11.52h-5.88v9.84H292v-21.36h8.13c3.48 0 6.12 2 6.12 5.73a5.5 5.5 0 0 1-4.92 5.76l5.16 9.9h-1.9zm.42-10.08h-6.3v8.64h6.3c2.76 0 4.7-1.35 4.7-4.32s-1.94-4.32-4.7-4.32zm16.12-1.44h13v1.44h-11.36V121h9.66v1.44h-9.66V131H329v1.44h-13zm34.82 19.4a7.26 7.26 0 0 1-5.34 1.96h-7.17v-21.36h7.2a7.26 7.26 0 0 1 5.33 1.95c2.16 2.16 2.07 5.55 2.07 8.43s.1 6.87-2.08 9.03zm-1.14-16.3a6 6 0 0 0-4.6-1.65h-5.15V131h5.16a6 6 0 0 0 4.57-1.65c1.68-1.77 1.6-5.5 1.6-7.9s.08-5.45-1.6-7.24zm31.8 18.44a7.48 7.48 0 0 1-5.34-2.2c-1.95-1.94-2-3.86-2-8.66s0-6.72 2-8.67a7.48 7.48 0 0 1 5.34-2.2c3.84 0 6.54 2.4 7.26 6.25h-1.65a5.58 5.58 0 0 0-5.63-4.8 5.67 5.67 0 0 0-4.05 1.65c-1.53 1.53-1.65 3.2-1.65 7.77s.12 6.24 1.65 7.77a5.76 5.76 0 0 0 9.72-3.15h1.6a7.14 7.14 0 0 1-7.27 6.24zm17.2-21.54h1.6V131h11.34v1.44h-13zm21.5 0h13v1.44H421.8V121h9.66v1.44h-9.66V131h11.34v1.44h-13zm33 16.18h-10l-1.86 5.18h-1.74l7.86-21.36h1.44l7.86 21.36H455zm-9.45-1.45h8.94l-4.47-12.57zm22.77-11.95v18.58h-1.62v-21.36h1.62l12.33 18.5v-18.5h1.62v21.36h-1.62zm24.9-2.78h1.6v21.36h-1.6zm14.2 2.78v18.58H504v-21.36h1.62l12.33 18.5v-18.5h1.62v21.36h-1.62zm36.98 16.3a7.56 7.56 0 0 1-5.62 2.46 7.46 7.46 0 0 1-5.33-2.2c-2-1.94-2-3.86-2-8.66s0-6.72 2-8.67a7.46 7.46 0 0 1 5.33-2.2 7.22 7.22 0 0 1 7.3 6.25h-1.63a5.76 5.76 0 0 0-9.7-3.15c-1.54 1.53-1.66 3.2-1.66 7.77s.12 6.24 1.65 7.77a5.66 5.66 0 0 0 4 1.65 5.74 5.74 0 0 0 4.45-2.07 6.2 6.2 0 0 0 1.3-4.23V123H537v-1.44h7.35V125a6.8 6.8 0 0 1-1.77 5.2zm31.62-6.78H568v9.06h-1.62v-21.36h7.83c3.7 0 6.46 2.22 6.46 6.15s-2.77 6.15-6.45 6.15zm-.2-10.86h-6V122h6c3 0 5-1.5 5-4.7s-2-4.74-5-4.74zm15.64-1.44h1.62v21.36h-1.62zM614 130.47a7.6 7.6 0 0 1-10.68 0c-1.94-1.95-2-3.87-2-8.67s0-6.72 2-8.67a7.6 7.6 0 0 1 10.68 0c2 2 2 3.84 2 8.67s0 6.72-2 8.67zM612.74 114a5.8 5.8 0 0 0-8.1 0c-1.52 1.53-1.64 3.2-1.64 7.77s.12 6.24 1.64 7.77a5.8 5.8 0 0 0 8.1 0c1.53-1.53 1.65-3.2 1.65-7.77s-.14-6.2-1.67-7.77zm15-.1v18.58h-1.62v-21.36h1.62l12.33 18.5v-18.5h1.62v21.36h-1.64zm24.9-2.78h13v1.44h-11.38V121h9.66v1.44h-9.66V131h11.34v1.44h-13zm22.3 0h13v1.44h-11.4V121h9.67v1.44h-9.64V131h11.34v1.44h-13zm29.78 11.52h-5.88v9.84h-1.62v-21.36h8.13c3.48 0 6.12 2 6.12 5.73a5.5 5.5 0 0 1-4.92 5.76l5.16 9.9h-1.87zm.42-10.08h-6.3v8.64h6.3c2.76 0 4.7-1.35 4.7-4.32s-1.94-4.32-4.7-4.32zm21.48 20.1a9.06 9.06 0 0 1-7.1-2.82l1.13-1.14a7.5 7.5 0 0 0 6.06 2.52c3.4 0 5.5-1.62 5.5-4.4a3.72 3.72 0 0 0-1.16-3 5.16 5.16 0 0 0-3.1-1.15l-2.48-.4a7.27 7.27 0 0 1-3.8-1.55 4.87 4.87 0 0 1-1.7-3.93c0-3.6 2.53-5.87 6.64-5.87a8.44 8.44 0 0 1 6.14 2.3l-1 1a6.78 6.78 0 0 0-5.2-2c-3.1 0-5 1.7-5 4.42a3.43 3.43 0 0 0 1.12 2.8 7.14 7.14 0 0 0 3.18 1.3l2.3.37a6.5 6.5 0 0 1 3.82 1.4 5.25 5.25 0 0 1 1.86 4.15c0 3.7-2.73 5.98-7.2 5.98z" class="cls-2"/><path d="M345.58 18.3c-2.87-7-9.73-11.15-19.7-11.15H298.3V18.3zm35.44-11.15h45.2V18.3h-45.2zm-130.24 0h13.3V18.3h-13.3zm282.17 0h45.2V18.3h-45.2zm187.7 0h13.4V18.3h-13.4zm-36.65 0h13.4V18.3H684zM655.28 18.3c-4.4-7.63-12.17-11.73-21.78-11.73A25.12 25.12 0 0 0 615 14.1a21 21 0 0 0-3.28 4.2zM453.5 7.15h49.27V18.3H453.5zm-239.93 0h13.4V18.3h-13.4zm257.87 28.1h13.4V75.8h-13.4zm74.9 11.9h27.1v-11.9h-40.5V75.8h45.2V63.82h-31.8V47.15zM633.6 64.4c-3.67 0-6.56-1.15-8.6-3.56-2.78-3-3.36-6.07-3.36-19.37 0-2.38 0-4.43.06-6.2h-13.36c-.06 1.9-.1 4-.1 6.2q0 11.28 1.15 17.06a19.93 19.93 0 0 0 5.6 10.32 25.15 25.15 0 0 0 18.5 7.5c13.1 0 22.94-7.7 25.25-21.68h-13.6c-1.45 5.88-5.1 9.74-11.57 9.74zM135.2 7.15h49.25V18.3H135.2zM684 35.25V75.8h13.4V47.05h23.24V75.8h13.4V35.25H684zm-433.22 0V51.8c0 7.9-4.72 12.63-12 12.63S227 59.7 227 51.8V35.26h-13.4v17c0 14.56 11.18 24.1 25.25 24.1s25.26-9.54 25.26-24.1v-17zm143.64 11.9h27.1v-11.9H381V75.8h45.2V63.82h-31.8V47.15zm-241.3-11.9h13.4V75.8h-13.4zM338.6 40.6a15.2 15.2 0 0 0 5.87-5.34H298.3V75.8H327c12.25 0 21-6.95 21-19.78.05-9.15-5.25-13.5-9.4-15.42zm-12.92 23.23h-14V47h14c6.08 0 9 3.76 9 8.4s-2.92 8.43-9 8.43z" class="cls-3"/><path d="M102.48 17.63l3-3.35a32.7 32.7 0 0 0-3.23-4.35 30 30 0 0 0-3.8-3.6 29 29 0 0 0-4.23-2.8 25.7 25.7 0 0 0-4.54-1.92L78.9 1.7l-29.3.2-.6 1.48-.7 1.73a40.75 40.75 0 0 1 4.8 2.52 35.63 35.63 0 0 1 5.13 3.74A40.64 40.64 0 0 1 63 16.2a46.77 46.77 0 0 1 4.06 5.8l14-1.72a43.4 43.4 0 0 1 2.23 4.16 45.5 45.5 0 0 1 1.8 4.48 43.2 43.2 0 0 1 1.32 4.75c.07.3.14.63.2 1s.13.74.17 1.12c.1.9.17 1.83.22 2.74.05 1.26.06 1.62.06 2.24a43.58 43.58 0 0 1-.5 6.63 36.93 36.93 0 0 1-3 10c-1.4 3-4.3 5.77-6.38 8a43 43 0 0 1-6.7 5.4A20.22 20.22 0 0 1 67 72.5a19.23 19.23 0 0 0 6.7-1.3c1.8-.9 1.76-.87-.07 0l11.94-5.83a29.17 29.17 0 0 0 7.16-5.54A29.94 29.94 0 0 0 98 52.4a34.26 34.26 0 0 0 3.15-9.46 38.82 38.82 0 0 0 .43-10.94 40.35 40.35 0 0 0-1.9-8.78 39.63 39.63 0 0 0-1.64-4l-.45-.93zm-88.2-9.17a30.25 30.25 0 0 0-3.35 3.86l40.66-2.7A32.57 32.57 0 0 0 37.25.92c-12.52-3.52-19.68 4-23 7.55zm49.62 58.3A36.65 36.65 0 0 0 65.36 63c-.7-.34-1.37-.72-2-1.12S62 61 61.4 60.58a30.33 30.33 0 0 1-3.6-3 33.4 33.4 0 0 1-5-6.4c-.48-.8-.93-1.6-1.35-2.44a37 37 0 0 1-3.3-22.84q.16-.93.4-1.83l-13.4 1.75c-.3 1.13-.5 2.3-.67 3.47a34.87 34.87 0 0 0-.3 3.54c0 1.2 0 2.42 0 3.65s.2 2.46.4 3.7a38.52 38.52 0 0 0 2.3 8.35 35.92 35.92 0 0 0 3.9 7.2 32.56 32.56 0 0 0 5.26 5.88 28.47 28.47 0 0 0 6.4 4.23l-12.9 5.5a31 31 0 0 1-6.73-4.72 36.9 36.9 0 0 1-5.55-6.43c.2.3.4.6.63.9-.22-.3-.43-.6-.63-.9q-.3-.45-.6-.9.28.45.6.9a41.12 41.12 0 0 1-4.2-7.85 43.7 43.7 0 0 1-2.56-9.06c-.24-1.36-.4-2.7-.5-4s-.16-2.67-.14-4 .1-2.6.23-3.88.33-2.52.6-3.75L4.1 30 .5 32q-.17 1.26-.3 2.5a53.68 53.68 0 0 0 .74 14.7 55.88 55.88 0 0 0 3.13 10.68c.45 1.12.93 2.2 1.45 3.27A50.26 50.26 0 0 0 9 69.2a46.6 46.6 0 0 0 4.12 5.3 38.3 38.3 0 0 0 10 8 28.05 28.05 0 0 0 11.85 3.53A30.57 30.57 0 0 0 48.07 83l.38-.17.66-.33.3-.14.87-.46.18-.1.62-.36.26-.16.47-.3.2-.18.42-.28.18-.13c.18-.14.35-.26.5-.38l.3-.23.14-.1a26.46 26.46 0 0 0 4.42-3.9 33 33 0 0 0 5.94-9.06z" class="cls-4"/><path d="M47.77 11.58l-40.65 2.7a30.25 30.25 0 0 1 3.34-3.87c3.32-3.5 10.47-11.05 23-7.52a32.5 32.5 0 0 1 14.3 8.7z" class="cls-3"/><path d="M10.93 12.32a30.25 30.25 0 0 1 3.34-3.86A28.65 28.65 0 0 1 22.4 2C18 3.76 13.24 7.65 10 10.8c-1.1 1.3-2 2.3-2.9 3.48l40.67-2.7 3.82-1.95z" class="cls-5"/><path d="M51.6 9.63l-40.67 2.7a30.25 30.25 0 0 1 3.34-3.87C17.6 4.93 24.75-2.6 37.27.92a32.57 32.57 0 0 1 14.32 8.7z" class="cls-6"/><path d="M50.06 81.73a26.46 26.46 0 0 0 4.42-3.9 33.24 33.24 0 0 0 5.84-9 39.1 39.1 0 0 0 1.46-3.75 29.53 29.53 0 0 1-7.56-5.46 33.57 33.57 0 0 1-6.37-8.84A37 37 0 0 1 44.57 28c.1-.6.24-1.22.38-1.82l-13.4 1.72a33 33 0 0 0-.66 3.46 35.32 35.32 0 0 0-.33 3.57c0 1.2 0 2.42 0 3.65s.2 2.47.4 3.72a38.52 38.52 0 0 0 2.3 8.34 35.92 35.92 0 0 0 3.9 7.2 32.52 32.52 0 0 0 5.27 5.88A28.47 28.47 0 0 0 48.9 68L36 73.44a31.13 31.13 0 0 1-6.72-4.7 36.55 36.55 0 0 1-5.57-6.45 41.16 41.16 0 0 1-4.2-7.87 44.32 44.32 0 0 1-2.54-9.06q-.34-2-.5-4c-.1-1.33-.15-2.66-.13-4a37.94 37.94 0 0 1 .23-3.87c.14-1.26.34-2.5.6-3.74L.5 32q-.18 1.26-.3 2.5A53.68 53.68 0 0 0 1 49.2a55.53 55.53 0 0 0 4.58 14 49.34 49.34 0 0 0 7.52 11.3 38.5 38.5 0 0 0 10 8 28.05 28.05 0 0 0 11.85 3.53 22.22 22.22 0 0 0 11.55-2.25l.38-.17 3.2-1.9z" class="cls-3"/><path d="M50.06 81.73a26.46 26.46 0 0 0 4.42-3.9 33.24 33.24 0 0 0 5.84-9 39.1 39.1 0 0 0 1.46-3.75 29.53 29.53 0 0 1-7.56-5.46 33.57 33.57 0 0 1-6.37-8.84A37 37 0 0 1 44.57 28c.1-.6.24-1.22.38-1.82l-13.4 1.72a33 33 0 0 0-.66 3.46 35.32 35.32 0 0 0-.33 3.57c0 1.2 0 2.42 0 3.65s.2 2.47.4 3.72a38.52 38.52 0 0 0 2.3 8.34 35.92 35.92 0 0 0 3.9 7.2 32.52 32.52 0 0 0 5.27 5.88A28.47 28.47 0 0 0 48.9 68L36 73.44a31.13 31.13 0 0 1-6.72-4.7 36.55 36.55 0 0 1-5.57-6.45 41.16 41.16 0 0 1-4.2-7.87 44.32 44.32 0 0 1-2.54-9.06q-.34-2-.5-4c-.1-1.33-.15-2.66-.13-4a37.94 37.94 0 0 1 .23-3.87c.14-1.26.34-2.5.6-3.74L.5 32q-.18 1.26-.3 2.5A53.68 53.68 0 0 0 1 49.2a55.53 55.53 0 0 0 4.58 14 49.34 49.34 0 0 0 7.52 11.3 38.5 38.5 0 0 0 10 8 28.05 28.05 0 0 0 11.85 3.53 22.22 22.22 0 0 0 11.55-2.25l.38-.17 3.2-1.9z" class="cls-4"/><path d="M30.6 38.58c-.07-1.23-.08-2.44 0-3.65a34.93 34.93 0 0 1 1-7l3.6-2.1c-.3 1.14-.5 2.3-.67 3.48a34.87 34.87 0 0 0-.3 3.58c0 1.2 0 2.42 0 3.65s.2 2.47.4 3.72a38.52 38.52 0 0 0 2.3 8.34 35.92 35.92 0 0 0 3.9 7.2 32.56 32.56 0 0 0 5.26 5.87 28.47 28.47 0 0 0 6.4 4.23l-4.2 1.77a28.42 28.42 0 0 1-5.8-3.93 32.56 32.56 0 0 1-5.27-5.87 35.92 35.92 0 0 1-3.9-7.2A38.52 38.52 0 0 1 31 42.3c-.2-1.25-.33-2.5-.4-3.72zm19.83 43l-.38.16A22.22 22.22 0 0 1 38.5 84a28.05 28.05 0 0 1-11.85-3.52 38.3 38.3 0 0 1-10-8 49.05 49.05 0 0 1-7.54-11.4 55 55 0 0 1-4.55-14 52.9 52.9 0 0 1-.73-14.7c.08-.83.18-1.65.3-2.46L.5 32q-.17 1.26-.3 2.5a53.68 53.68 0 0 0 .74 14.7 55.4 55.4 0 0 0 4.58 14 49.05 49.05 0 0 0 7.58 11.3 38.3 38.3 0 0 0 10 8 28.05 28.05 0 0 0 11.85 3.53c7.9.17 15.58-4 18.24-6l.42-.34z" class="cls-5"/><path d="M4.1 30c0 .05 0 .1 0 .14s0-.14 0-.14z" class="cls-9"/><path d="M53.64 79.65a26.46 26.46 0 0 0 4.42-3.9 33 33 0 0 0 5.84-9A36.65 36.65 0 0 0 65.36 63a29.53 29.53 0 0 1-7.56-5.46 33.8 33.8 0 0 1-6.37-8.84 37 37 0 0 1-3.28-22.8q.16-.93.4-1.83l-13.42 1.75c-.28 1.13-.5 2.3-.66 3.47a34.87 34.87 0 0 0-.3 3.54c0 1.2 0 2.42 0 3.65s.2 2.46.4 3.7a38.52 38.52 0 0 0 2.3 8.35 35.92 35.92 0 0 0 3.9 7.2 32.56 32.56 0 0 0 5.26 5.88 28.47 28.47 0 0 0 6.4 4.23l-12.9 5.5a31 31 0 0 1-6.72-4.72 36.55 36.55 0 0 1-5.55-6.44 40.83 40.83 0 0 1-4.2-7.84 43.7 43.7 0 0 1-2.56-9.06c-.24-1.35-.4-2.7-.5-4s-.16-2.66-.14-4 .1-2.6.23-3.87.33-2.52.6-3.75L4.1 30c-.12.8-.22 1.63-.3 2.46a52.9 52.9 0 0 0 .74 14.7 55 55 0 0 0 4.57 14 49.05 49.05 0 0 0 7.6 11.35 38.3 38.3 0 0 0 10 8A28.05 28.05 0 0 0 38.5 84a22.22 22.22 0 0 0 11.55-2.25l.38-.17 3.2-1.92z" class="cls-10"/><path d="M101.1 14.83c-2-3.64-6.17-9.55-11.76-9.84-7.6-.4-37.47.05-41 .1a40.75 40.75 0 0 1 4.8 2.53 35.63 35.63 0 0 1 5.13 3.73A40.64 40.64 0 0 1 63 16.2a46.77 46.77 0 0 1 4.06 5.8l14-1.72a44.14 44.14 0 0 1 4 8.64 43.2 43.2 0 0 1 1.34 4.75c.07.3.14.63.2 1s.13.74.17 1.12c.1.9.18 1.83.23 2.74.05 1.26.06 1.62.06 2.24a43.58 43.58 0 0 1-.5 6.63 36.93 36.93 0 0 1-3 10c-1.4 3-4.3 5.77-6.37 8a43 43 0 0 1-6.73 5.4A20.22 20.22 0 0 1 67 72.5h.3l20-9.33c21.3-18.25 7.34-44.53 7.34-44.53l7.8-1s-.5-1.17-1.4-2.8h-.35z" class="cls-11"/><path d="M73.8 71.14l.15-.07.62-.3z" class="cls-12"/><path d="M86.63 47.42a36.93 36.93 0 0 1-3 10c-1.4 3-4.3 5.76-6.37 8a43 43 0 0 1-6.7 5.4A20.22 20.22 0 0 1 67 72.48a19.23 19.23 0 0 0 6.7-1.3 25.14 25.14 0 0 0 6.65-5.37 30.87 30.87 0 0 0 5.48-8A37.94 37.94 0 0 0 89 47.46a44.3 44.3 0 0 0 .23-12 47.54 47.54 0 0 0-.85-5 45.57 45.57 0 0 0-1.35-4.75 44.06 44.06 0 0 0-1.8-4.5A44.55 44.55 0 0 0 83 17l-14 1.76A46.7 46.7 0 0 0 64.9 13a40.7 40.7 0 0 0-4.7-4.83 35 35 0 0 0-5.14-3.73 30.08 30.08 0 0 0-5.4-2.53L49 3.37l-.7 1.73a40.75 40.75 0 0 1 4.8 2.52 35.63 35.63 0 0 1 5.13 3.74A40.64 40.64 0 0 1 63 16.2a46.77 46.77 0 0 1 4.06 5.8l14-1.72a44.14 44.14 0 0 1 4 8.64 43.2 43.2 0 0 1 1.34 4.75c.07.3.14.63.2 1s.13.74.17 1.12c.1.9.18 1.83.23 2.74.05 1.26.06 1.62.06 2.24a43.58 43.58 0 0 1-.43 6.62zM96 15.45c.56.9 1.08 1.84 1.57 2.8l4.9-.62 3-3.35z" class="cls-13"/><path d="M88.15 51.47c-.22.8-.45 1.57-.7 2.33.25-.8.48-1.54.7-2.33zM80.37 65.8a29.76 29.76 0 0 0 3.95-5.22 29.76 29.76 0 0 1-3.95 5.23zM96 15.46v.06z" class="cls-14"/><g class="cls-15"><path d="M75 70.47l.18-.1z" class="cls-16"/><path d="M75 70.47l.18-.1z" class="cls-4"/></g><g class="cls-15"><path d="M98 52.4a34.26 34.26 0 0 0 3.15-9.46 38.82 38.82 0 0 0 .43-10.94 40.35 40.35 0 0 0-1.9-8.78 39.63 39.63 0 0 0-1.64-4 36.17 36.17 0 0 0-2-3.74l4.84-.6h-.1l4.76-.58a32.7 32.7 0 0 0-3.23-4.35 30 30 0 0 0-3.8-3.6 29 29 0 0 0-4.2-2.8 25.7 25.7 0 0 0-4.55-1.92l-10.78.06-15.27.1h2.75l-16.78.1a29.68 29.68 0 0 1 5.4 2.52 35.3 35.3 0 0 1 5.14 3.73A39.88 39.88 0 0 1 64.9 13a45.73 45.73 0 0 1 4.1 5.76L83 17a45.67 45.67 0 0 1 2.22 4.16 44.06 44.06 0 0 1 1.8 4.48 45.57 45.57 0 0 1 1.35 4.75 47.54 47.54 0 0 1 .85 5 44.3 44.3 0 0 1-.23 12 37.94 37.94 0 0 1-3.2 10.32 30.87 30.87 0 0 1-5.48 8c-.88.92-1.77 1.8-2.68 2.6l-.26.23c-.4.3-.76.62-1.14.9-.37.3-.76.55-1.15.8l-.3.18a11.9 11.9 0 0 1-1.2.68l.18-.07.7-.35 11-5.4c.32-.16.63-.33 1-.5a21.12 21.12 0 0 0 1.88-1.26c.3-.22.62-.46.93-.7.6-.5 1.2-1 1.77-1.52s1.12-1 1.63-1.56A29.94 29.94 0 0 0 98 52.4z" class="cls-18"/><path d="M98 52.4a34.26 34.26 0 0 0 3.15-9.46 38.82 38.82 0 0 0 .43-10.94 40.35 40.35 0 0 0-1.9-8.78 39.63 39.63 0 0 0-1.64-4 36.17 36.17 0 0 0-2-3.74l4.84-.6h-.1l4.76-.58a32.7 32.7 0 0 0-3.23-4.35 30 30 0 0 0-3.8-3.6 29 29 0 0 0-4.2-2.8 25.7 25.7 0 0 0-4.55-1.92l-10.78.06-15.27.1h2.75l-16.78.1a29.68 29.68 0 0 1 5.4 2.52 35.3 35.3 0 0 1 5.14 3.73A39.88 39.88 0 0 1 64.9 13a45.73 45.73 0 0 1 4.1 5.76L83 17a45.67 45.67 0 0 1 2.22 4.16 44.06 44.06 0 0 1 1.8 4.48 45.57 45.57 0 0 1 1.35 4.75 47.54 47.54 0 0 1 .85 5 44.3 44.3 0 0 1-.23 12 37.94 37.94 0 0 1-3.2 10.32 30.87 30.87 0 0 1-5.48 8c-.88.92-1.77 1.8-2.68 2.6l-.26.23c-.4.3-.76.62-1.14.9-.37.3-.76.55-1.15.8l-.3.18a11.9 11.9 0 0 1-1.2.68l.18-.07.7-.35 11-5.4c.32-.16.63-.33 1-.5a21.12 21.12 0 0 0 1.88-1.26c.3-.22.62-.46.93-.7.6-.5 1.2-1 1.77-1.52s1.12-1 1.63-1.56A29.94 29.94 0 0 0 98 52.4z" class="cls-4"/></g><g class="cls-15"><path d="M77.46 68.6l.22-.2z" class="cls-20"/><path d="M77.46 68.6l.22-.2z" class="cls-4"/></g></g></g></g></svg>