<svg xmlns="http://www.w3.org/2000/svg" xmlns:xlink="http://www.w3.org/1999/xlink" viewBox="0 0 502.35 200.78"><defs><style>.cls-1{fill:url(#radial-gradient);}.cls-2{fill:#010101;}.cls-3{fill:#656666;}.cls-4{fill:url(#linear-gradient);}.cls-5{fill:#96c796;}.cls-6{fill:#369746;}.cls-7{fill:#cee4c0;}.cls-8{fill:url(#linear-gradient-2);}.cls-9{fill:url(#linear-gradient-3);}.cls-10{fill:url(#linear-gradient-4);}.cls-11{fill:#231f20;}</style><radialGradient id="radial-gradient" cx="434.69" cy="-291.5" r="67.66" gradientTransform="translate(0 211.08) scale(1 0.2)" gradientUnits="userSpaceOnUse"><stop offset="0" stop-color="#b4b3b5"/><stop offset="0.23" stop-color="#b4b3b5" stop-opacity="0.69"/><stop offset="0.49" stop-color="#b4b3b5" stop-opacity="0.4"/><stop offset="0.71" stop-color="#b4b3b5" stop-opacity="0.18"/><stop offset="0.89" stop-color="#b4b3b5" stop-opacity="0.05"/><stop offset="1" stop-color="#b4b3b5" stop-opacity="0"/></radialGradient><linearGradient id="linear-gradient" x1="457.07" y1="-433.57" x2="474.26" y2="-517.35" gradientTransform="matrix(0.99, -0.11, 0.11, 0.99, 29.98, 567.36)" gradientUnits="userSpaceOnUse"><stop offset="0" stop-color="#010101"/><stop offset="1" stop-color="#039348"/></linearGradient><linearGradient id="linear-gradient-2" x1="462.88" y1="-435.51" x2="487.73" y2="-479.28" gradientTransform="matrix(0.99, -0.11, 0.11, 0.99, 29.98, 567.36)" gradientUnits="userSpaceOnUse"><stop offset="0" stop-color="#111a13"/><stop offset="1" stop-color="#0e6d38"/></linearGradient><linearGradient id="linear-gradient-3" x1="432.09" y1="-453.72" x2="457.8" y2="-488.36" gradientTransform="matrix(0.99, -0.11, 0.11, 0.99, 29.98, 567.36)" gradientUnits="userSpaceOnUse"><stop offset="0" stop-color="#192518"/><stop offset="1" stop-color="#299446"/></linearGradient><linearGradient id="linear-gradient-4" x1="464.16" y1="-475.9" x2="487.39" y2="-507.2" gradientTransform="matrix(0.99, -0.11, 0.11, 0.99, 29.98, 567.36)" gradientUnits="userSpaceOnUse"><stop offset="0" stop-color="#1e6332"/><stop offset="0.26" stop-color="#408239"/><stop offset="0.57" stop-color="#63a141"/><stop offset="0.83" stop-color="#78b545"/><stop offset="1" stop-color="#80bc47"/></linearGradient></defs><title>Asset 1</title><g id="Layer_2" data-name="Layer 2"><g id="Layer_1-2" data-name="Layer 1"><path class="cls-1" d="M502.35,152c0,7.57-30.29,13.71-67.66,13.71S367,159.56,367,152s30.3-13.72,67.66-13.72S502.35,144.41,502.35,152Z"/><path class="cls-2" d="M38.16,152l-3.3-26.64H18.24L14.94,152h-13L19.43,41.2H33.67L51.21,152ZM28.4,71.4c-1.06-8.17-1.72-18.59-1.72-18.59h-.26S25.76,63.23,24.7,71.4l-5.54,44.19H33.94Z"/><path class="cls-2" d="M75.35,153c-5.8,0-11.08-1.58-14.11-3.69V41.2H72.71v29A15,15,0,0,1,80.36,68c14,0,18.47,16.09,18.47,41.81C98.83,134.18,95.66,153,75.35,153Zm2.37-75.83a9.06,9.06,0,0,0-5,1.45V142.1a7.71,7.71,0,0,0,4.09.79c8.84,0,10.29-13.46,10.29-32.84S85.5,77.21,77.72,77.21Z"/><path class="cls-2" d="M111.09,152V41.2H122.7V152Z"/><path class="cls-3" d="M235.85,152.38c-7.65,0-9-7.38-9-13.32V72.33h-5.81V68.9h5.81V55.18l5-1.85V68.9h7.91v3.43H231.9v67.39c0,4.62,1,8.31,5.27,8.31a10.86,10.86,0,0,0,2.64-.39v4.08A11.76,11.76,0,0,1,235.85,152.38Z"/><path class="cls-3" d="M268.56,152.78c-13.45,0-15.83-18.07-15.83-42.34s2.38-42.33,15.83-42.33,15.83,18.06,15.83,42.33S282,152.78,268.56,152.78Zm0-80.85c-9.76,0-10.68,18.33-10.68,38.38s.92,38.38,10.68,38.38,10.68-18.33,10.68-38.38S278.32,71.93,268.56,71.93Z"/><path class="cls-4" d="M409.8,17.07c0,.06,1.45-5.56,4.79-6.06C415.64,12.12,449,1.08,450,.47c0,0,1.53-.23,2.16-.38,2.65-.62,3.58,2.29,3.58,2.26,5.35,13.15,10.79,19.92,21.06,28.58,0,0,2.63,2.6,3.1,4.6.51,2.36-1.1,6.23-1.09,6.21-5.61,8.68-10.1,15.75-13.1,24a22.71,22.71,0,0,1-.94,2.55c-.8,1.73-4,1.8-4,1.8-10.26,2.31-19.26,6.4-30.31,11.1,0,0-5.36,3-7.81,1.92-3.63-1.56-4.43-3.95-4.43-3.94-4.71-12.2-10.05-18.85-19.47-27.31a8.91,8.91,0,0,1-2.65-4.38c-.31-1.78,1.07-4.54,1.07-4.53C402.43,35.41,410.44,17.55,409.8,17.07Z"/><path class="cls-5" d="M432.14,60.73c2.49-6.88,3.75-11.15,3.42-11.35s-2.21,4-4.79,10.8-5,14.36-4.62,14.57S429.66,67.58,432.14,60.73Z"/><path class="cls-6" d="M428.4,31.63c-3.82-5.16-8.21-10.23-8.69-9.88s3.19,5.86,7.11,11,6.77,8.33,7.21,8.09S432.23,36.79,428.4,31.63Z"/><path class="cls-7" d="M452.52,41.52c-6.36,1.58-10.4,2.89-10.4,3.17s4.32-.67,10.7-2.19,13.35-3.38,13.25-3.7S458.82,40,452.52,41.52Z"/><path class="cls-8" d="M461.74,63.4c2.55-7.24,6.05-13.44,10.54-20.7,0,0,2.2-2.94-2.66-1.93-7.31,1.35-30.14,6.56-29.09,6.56a6.4,6.4,0,0,0-3,2.29c-.75.18-8.11,23.49-8.71,25.42,0,0-1,2.95,1.62,1.85,3.61-2.07,27-10.84,27.25-10A5.57,5.57,0,0,0,461.74,63.4Z"/><path class="cls-9" d="M423.56,74.39s-1.24,2.55-2.18.47c.63-3.64-16.79-26.48-18.95-26.34a5,5,0,0,1-.51-5c2.05-3.1,11.61-21.69,10.88-21.93,0,0,1-1.37,2.73.83,3.18,3.77,18.93,23.91,18.06,23.24a3.85,3.85,0,0,1,.11,3C433.71,48.88,424.29,72.56,423.56,74.39Z"/><path class="cls-10" d="M472,32s2.23,2.26-1.57,3.22c-1.82.46-10.81,2.75-17.39,4.46-6.91,1.79-11.39,3-11.71,3.08,0,0-2.06.61-2.73-.3.23.32-15.52-21.59-16.87-23.45,0,0-3.44-4.44-.33-5.27,2.5,0,26.42-8.06,27-8.45,0,0,3.12-1.31,4.13.64C452.37,10.09,469.86,32.5,472,32Z"/><path class="cls-3" d="M189.56,84.86c0-7.79,3.56-12.93,9.89-12.93a11.71,11.71,0,0,1,7.39,2.77l1.84-3.17a14,14,0,0,0-9.23-3.42c-8.7,0-14.9,6.85-14.9,16.75,0,22,19.39,26.37,19.39,47.34,0,9.5-3.17,16.49-10.69,16.49a12.09,12.09,0,0,1-5.08-1.34v-14h-4.41v16a16,16,0,0,0,9.89,3.43c10.55,0,15.43-9.63,15.43-20.58C209.08,109,189.56,104.77,189.56,84.86Z"/><path class="cls-2" d="M151.19,68c16.36,0,22.16,10.42,22.16,30.47,0,17.14-6.46,30.6-25.32,34.16v2.9c0,5.67,1.84,8,8.17,8a28.24,28.24,0,0,0,11.61-2.9l3,8.84a40.2,40.2,0,0,1-16.22,3.69c-15,0-17.94-7-17.94-19.39V71.65C139.72,69.67,145.65,68,151.19,68ZM148,124.67c11.34-2.77,13.71-14.24,13.71-25.85,0-13.58-2.11-21-9.63-21a7.72,7.72,0,0,0-4.08.93Z"/><path class="cls-3" d="M352,68.22c14.9,0,18.46,11.74,18.46,30.47,0,16.09-5.94,31.92-24.4,35.35v3.56c0,8.18,2.51,11.08,9.23,11.08A22.33,22.33,0,0,0,366,145.91l1.84,3.56a28.58,28.58,0,0,1-13.19,3.43c-10,0-13.45-4.88-13.45-15.56V71.65A17.6,17.6,0,0,1,352,68.22Zm-5.94,62.26c15.43-3.56,19.26-17.68,19.26-31.79,0-15.69-2.51-26.64-13.32-26.64a11,11,0,0,0-5.94,1.32Z"/><polygon class="cls-3" points="309.84 96.73 328.44 68.9 322.9 68.9 305.22 96.46 304.96 96.46 304.96 45.98 304.96 41.2 300.08 41.2 290.09 41.2 290.09 45.98 300.08 45.98 300.08 151.99 304.96 151.99 304.96 96.73 305.22 96.73 325.93 151.99 331.2 151.99 309.84 96.73"/><path class="cls-11" d="M0,199l1.18-1.73a5.77,5.77,0,0,0,4.06,1.54c2.13,0,3.5-1.35,3.5-2.85,0-2-2-2.88-4.09-3.9S.54,189.73.54,186.88s2.5-4.65,5.32-4.65a7.44,7.44,0,0,1,4.81,1.46l-1.13,1.77a5.89,5.89,0,0,0-3.65-1.21c-1.72,0-3,1-3,2.53,0,1.72,1.46,2.47,3.26,3.3,2.36,1.13,5,2.34,5,5.78,0,2.91-2.4,4.92-6,4.92A7.58,7.58,0,0,1,0,199Z"/><path class="cls-11" d="M17.21,182.56h2.28l4.28,12c.51,1.45.8,2.34,1.1,3.25h.05c.25-.86.57-1.83,1.08-3.25l4.3-12h2.31L35,200.46H32.59l-1.48-11.24c-.16-1.29-.24-2-.3-2.52h0c-.16.59-.38,1.34-.78,2.5l-4,11.26H23.61L19.52,189.2c-.4-1.16-.65-1.91-.83-2.5h-.06c-.05.61-.13,1.37-.27,2.58L17,200.46H14.73Z"/><path class="cls-11" d="M44.79,182.56h2.34L54,200.46H51.41l-1.56-4.22h-8l-1.53,4.22H37.94Zm4.3,11.66L47,188.44c-.56-1.5-.81-2.34-1.08-3.09h0c-.24.81-.54,1.72-1.05,3.09l-2.15,5.78Z"/><path class="cls-11" d="M58,182.56H63.1c3.82,0,6.05,1.74,6.05,4.84s-2.12,4.49-4.84,4.7v.05a10,10,0,0,1,1.91,2.29l4.25,6h-2.8l-3.55-5.08c-2-2.8-2.25-3-3.41-3h-.27v8.09H58Zm5,7.9c2.56,0,3.72-1.08,3.72-3s-1.24-2.94-3.88-2.94H60.44v5.92Z"/><path class="cls-11" d="M77.38,184.6H72.32v-2H84.88v2h-5v15.86H77.38Z"/><path class="cls-11" d="M95.9,182.56h3.9c3.77,0,6.13,1.85,6.13,5.05s-2.23,5.24-6.29,5.24H97.38v7.61H95.9Zm3.71,9c3.42,0,4.82-1.56,4.82-3.93s-1.35-3.84-4.76-3.84H97.38v7.77Z"/><path class="cls-11" d="M110.88,182.56h1.48V199.2h7.18v1.26h-8.66Z"/><path class="cls-11" d="M128.89,182.56h1.51l6.83,17.9h-1.56l-1.83-4.84h-8.5l-1.8,4.84h-1.48Zm4.47,11.8-3.77-10.06-3.76,10.06Z"/><path class="cls-11" d="M141.45,182.56h1.45L153.58,198V182.56H155v17.9H153.6l-10.78-15.57v15.57h-1.37Z"/><path class="cls-11" d="M161.26,182.56h1.46L173.39,198V182.56h1.4v17.9h-1.37l-10.78-15.57v15.57h-1.38Z"/><path class="cls-11" d="M181.19,182.56h1.48v17.9h-1.48Z"/><path class="cls-11" d="M189.07,182.56h1.45L201.19,198V182.56h1.4v17.9h-1.37l-10.78-15.57v15.57h-1.37Z"/><path class="cls-11" d="M207.67,191.48c0-4.89,3.25-9.22,8.74-9.22a9,9,0,0,1,5.35,1.59L221,185a7.23,7.23,0,0,0-4.6-1.45c-4.67,0-7.15,3.76-7.15,7.93s2.5,8.06,7.18,8.06a8.33,8.33,0,0,0,5-1.34v-5.51h-4.14v-1.27h5.59v7.51a10.3,10.3,0,0,1-6.53,1.88C210.9,200.76,207.67,196.37,207.67,191.48Z"/><path class="cls-11" d="M235.93,182.56H245v1.26h-7.58v6.45H244v1.27h-6.58v8.92h-1.48Z"/><path class="cls-11" d="M248.48,191.54c0-4.95,3.26-9.28,8.64-9.28s8.63,4.27,8.63,9.22-3.29,9.28-8.63,9.28S248.48,196.48,248.48,191.54Zm15.73,0c0-4.28-2.63-8-7.09-8s-7.1,3.71-7.1,8,2.61,8,7.1,8S264.21,195.81,264.21,191.54Z"/><path class="cls-11" d="M270.85,182.56h4.23c3.63,0,5.83,1.58,5.83,4.59s-2.18,4.44-5.3,4.55h-.21v0c.35.19.75.62,1.75,2l5,6.77h-1.77l-4.39-6c-1.77-2.45-2.09-2.64-3.14-2.64h-.49v8.66h-1.48Zm4.17,8c2.88,0,4.38-1.16,4.38-3.39s-1.53-3.36-4.49-3.36h-2.58v6.75Z"/><path class="cls-11" d="M292.23,199l1.18-1.73a5.77,5.77,0,0,0,4.06,1.54c2.13,0,3.5-1.35,3.5-2.85,0-2-2-2.88-4.09-3.9s-4.11-2.29-4.11-5.14,2.5-4.65,5.32-4.65a7.44,7.44,0,0,1,4.81,1.46l-1.13,1.77a5.89,5.89,0,0,0-3.65-1.21c-1.72,0-3,1-3,2.53,0,1.72,1.45,2.47,3.26,3.3,2.36,1.13,5,2.34,5,5.78,0,2.91-2.4,4.92-6,4.92A7.58,7.58,0,0,1,292.23,199Z"/><path class="cls-11" d="M309.44,182.56h2.28l4.28,12c.51,1.45.8,2.34,1.1,3.25h0c.24-.86.57-1.83,1.08-3.25l4.3-12h2.31l2.42,17.9h-2.44l-1.48-11.24c-.17-1.29-.25-2-.3-2.52H323c-.16.59-.38,1.34-.78,2.5l-4,11.26h-2.37l-4.08-11.26c-.4-1.16-.65-1.91-.83-2.5h-.06c-.05.61-.13,1.37-.27,2.58l-1.37,11.18H307Z"/><path class="cls-11" d="M337,182.56h2.34l6.91,17.9h-2.63l-1.56-4.22h-8l-1.54,4.22h-2.41Zm4.3,11.66-2.12-5.78c-.57-1.5-.81-2.34-1.08-3.09h-.05c-.24.81-.54,1.72-1.05,3.09l-2.15,5.78Z"/><path class="cls-11" d="M350.22,182.56h5.11c3.82,0,6.05,1.74,6.05,4.84s-2.12,4.49-4.84,4.7v.05a10,10,0,0,1,1.91,2.29l4.25,6h-2.8l-3.55-5.08c-2-2.8-2.26-3-3.41-3h-.27v8.09h-2.45Zm5,7.9c2.56,0,3.71-1.08,3.71-3s-1.23-2.94-3.87-2.94h-2.39v5.92Z"/><path class="cls-11" d="M369.61,184.6h-5.06v-2h12.56v2h-5.06v15.86h-2.44Z"/><path class="cls-11" d="M388.13,182.56H392c3.77,0,6.13,1.85,6.13,5.05s-2.23,5.24-6.29,5.24h-2.26v7.61h-1.48Zm3.71,9c3.42,0,4.82-1.56,4.82-3.93s-1.35-3.84-4.76-3.84h-2.29v7.77Z"/><path class="cls-11" d="M403.11,182.56h8.79v1.26h-7.31v6.45H411v1.27h-6.42v7.66h7.5v1.26h-9Z"/><path class="cls-11" d="M416.1,191.54c0-4.95,3.25-9.28,8.63-9.28s8.63,4.27,8.63,9.22-3.28,9.28-8.63,9.28S416.1,196.48,416.1,191.54Zm15.72,0c0-4.28-2.63-8-7.09-8s-7.1,3.71-7.1,8,2.61,8,7.1,8S431.82,195.81,431.82,191.54Z"/><path class="cls-11" d="M438.46,182.56h3.9c3.77,0,6.13,1.85,6.13,5.05s-2.23,5.24-6.29,5.24h-2.26v7.61h-1.48Zm3.71,9c3.42,0,4.82-1.56,4.82-3.93s-1.35-3.84-4.76-3.84h-2.29v7.77Z"/><path class="cls-11" d="M453.44,182.56h1.48V199.2h7.18v1.26h-8.66Z"/><path class="cls-11" d="M466.72,182.56h8.79v1.26H468.2v6.45h6.43v1.27H468.2v7.66h7.5v1.26h-9Z"/></g></g></svg>