<svg xmlns="http://www.w3.org/2000/svg" viewBox="0 0 616.33 98.1"><defs><style>.cls-1{fill:#231f20;}.cls-2{fill:#e03b26;}</style></defs><title>Asset 2</title><g id="Layer_2" data-name="Layer 2"><g id="Layer_1-2" data-name="Layer 1"><path class="cls-1" d="M0,58.2V1.59H24.4a17.24,17.24,0,0,1,7.65,1.72,19.8,19.8,0,0,1,6,4.46,21,21,0,0,1,4,6.3,18.87,18.87,0,0,1,1.43,7.14A20.71,20.71,0,0,1,38.31,34.8a18,18,0,0,1-5.9,4.39,17.61,17.61,0,0,1-7.61,1.63H15.55V58.2ZM15.55,27.27h8.21A3.62,3.62,0,0,0,26.43,26c.83-.87,1.24-2.46,1.24-4.74s-.48-3.93-1.44-4.78a4.34,4.34,0,0,0-2.87-1.28H15.55Z"/><path class="cls-1" d="M57.89,59a16.12,16.12,0,0,1-5.82-1,14.33,14.33,0,0,1-4.67-2.84,12.85,12.85,0,0,1-4.18-9.6,12.54,12.54,0,0,1,1.35-5.82,13.86,13.86,0,0,1,3.75-4.55A17.29,17.29,0,0,1,54,32.21a24.34,24.34,0,0,1,7.3-1,19.72,19.72,0,0,1,8.45,1.59V31.49a5.38,5.38,0,0,0-1.72-4.38q-1.71-1.44-5.54-1.44a18.45,18.45,0,0,0-6.62,1.16,32.67,32.67,0,0,0-6.38,3.39l-4.38-9.41A34.15,34.15,0,0,1,64,15.47q10,0,15.46,4.46t5.43,13.4v8.13a4.34,4.34,0,0,0,.79,3,4.39,4.39,0,0,0,2.87,1V58.2q-2.07.4-3.9.6a28.93,28.93,0,0,1-3.27.2,10.81,10.81,0,0,1-6.18-1.47,6.86,6.86,0,0,1-2.75-4.35l-.32-1.51a19.37,19.37,0,0,1-6.46,5.46A16.9,16.9,0,0,1,57.89,59Zm4.54-10.84a9.59,9.59,0,0,0,2.79-.44,10,10,0,0,0,2.55-1.16,6.38,6.38,0,0,0,1.44-1.39,2.62,2.62,0,0,0,.56-1.56V40.5a21.44,21.44,0,0,0-3-.79A14.29,14.29,0,0,0,64,39.39a7.61,7.61,0,0,0-4.63,1.35,4.12,4.12,0,0,0-1.83,3.43A3.5,3.5,0,0,0,58.88,47,5.49,5.49,0,0,0,62.43,48.16Z"/><path class="cls-1" d="M91.45,0H106.6V40.5c0,3.19,1.31,4.79,3.91,4.79a7.63,7.63,0,0,0,2.07-.32,9,9,0,0,0,2.08-.88l1.91,12.2a27.46,27.46,0,0,1-6.1,2,31,31,0,0,1-6.42.72Q98,59,94.72,55.89t-3.27-9Z"/><path class="cls-1" d="M118.64,12.76V0h15.15V12.76Zm0,45.44V16.27h15.15V58.2Z"/><path class="cls-1" d="M158.11,59a42.86,42.86,0,0,1-5.66-.4c-2-.26-4-.61-5.94-1A53.8,53.8,0,0,1,140.89,56a28.31,28.31,0,0,1-4.71-2L142,43.69a46.85,46.85,0,0,0,8.38,3.51,25.79,25.79,0,0,0,7.41,1.2c2.66,0,4-.67,4-2,0-.69-.53-1.3-1.6-1.83a34,34,0,0,0-6.06-1.91,73.28,73.28,0,0,1-7.49-2.39,18.8,18.8,0,0,1-4.87-2.68,8.8,8.8,0,0,1-2.63-3.27,10.22,10.22,0,0,1-.79-4.18,13.42,13.42,0,0,1,1.31-5.9,14.05,14.05,0,0,1,3.71-4.71,17.13,17.13,0,0,1,5.7-3.07,23.46,23.46,0,0,1,7.22-1.07,38.13,38.13,0,0,1,9.05,1.19,56.06,56.06,0,0,1,9.84,3.51l-5.82,9.65a62.55,62.55,0,0,0-7.41-3,19.15,19.15,0,0,0-5.66-.92,6.62,6.62,0,0,0-2.83.52A1.72,1.72,0,0,0,152.37,28a1.79,1.79,0,0,0,.32,1.07,3.08,3.08,0,0,0,1.11.84,16.42,16.42,0,0,0,2.2.84c.93.29,2.08.6,3.47.91a64.11,64.11,0,0,1,8.05,2.51A20.91,20.91,0,0,1,172.74,37a9.07,9.07,0,0,1,2.79,3.5,11.37,11.37,0,0,1,.84,4.51,12.16,12.16,0,0,1-4.9,10.2Q166.57,59,158.11,59Z"/><path class="cls-1" d="M191.84,59A16.12,16.12,0,0,1,186,58a14.33,14.33,0,0,1-4.67-2.84,12.85,12.85,0,0,1-4.18-9.6,12.54,12.54,0,0,1,1.35-5.82,13.86,13.86,0,0,1,3.75-4.55,17.29,17.29,0,0,1,5.7-2.95,24.32,24.32,0,0,1,7.29-1,19.74,19.74,0,0,1,8.46,1.59V31.49A5.41,5.41,0,0,0,202,27.11q-1.71-1.44-5.54-1.44a18.45,18.45,0,0,0-6.62,1.16,32.67,32.67,0,0,0-6.38,3.39l-4.38-9.41A34.15,34.15,0,0,1,198,15.47q10,0,15.46,4.46t5.43,13.4v8.13a4.34,4.34,0,0,0,.79,3,4.39,4.39,0,0,0,2.87,1V58.2q-2.07.4-3.9.6a29.07,29.07,0,0,1-3.27.2,10.81,10.81,0,0,1-6.18-1.47,6.86,6.86,0,0,1-2.75-4.35l-.32-1.51a19.37,19.37,0,0,1-6.46,5.46A16.93,16.93,0,0,1,191.84,59Zm4.54-10.84a9.59,9.59,0,0,0,2.79-.44,10,10,0,0,0,2.55-1.16,6.38,6.38,0,0,0,1.44-1.39,2.62,2.62,0,0,0,.56-1.56V40.5a21.44,21.44,0,0,0-2.95-.79,14.29,14.29,0,0,0-2.87-.32,7.58,7.58,0,0,0-4.63,1.35,4.12,4.12,0,0,0-1.83,3.43A3.5,3.5,0,0,0,192.83,47,5.49,5.49,0,0,0,196.38,48.16Z"/><path class="cls-1" d="M243.18,59a19.54,19.54,0,0,1-7.93-1.59A18.28,18.28,0,0,1,229,52.9,21.17,21.17,0,0,1,224.88,46a25.57,25.57,0,0,1-1.47-8.81,26.72,26.72,0,0,1,1.35-8.62,21.54,21.54,0,0,1,3.79-6.89,17.45,17.45,0,0,1,5.78-4.55,16.72,16.72,0,0,1,7.42-1.63,15.42,15.42,0,0,1,7.45,1.83,12.79,12.79,0,0,1,5.23,5.18V0h15.15V41.46a4.34,4.34,0,0,0,.79,3,4.39,4.39,0,0,0,2.87,1V58.2c-1.54.27-2.9.47-4.06.6a26.36,26.36,0,0,1-3.11.2q-7.74,0-8.93-5.82l-.32-1.51A13.15,13.15,0,0,1,251,57.25,17.89,17.89,0,0,1,243.18,59Zm4.15-12.76q4.14,0,7.17-4.3v-7.5a10.67,10.67,0,0,0-3.26-4.5,7.21,7.21,0,0,0-4.55-1.71,6.61,6.61,0,0,0-3.07.71,7.17,7.17,0,0,0-2.39,2,10.32,10.32,0,0,0-1.6,2.95,10.75,10.75,0,0,0-.59,3.58,8.85,8.85,0,0,0,2.27,6.38A7.89,7.89,0,0,0,247.33,46.24Z"/><path class="cls-1" d="M297.88,59a26.41,26.41,0,0,1-9.81-1.71,20.67,20.67,0,0,1-7.21-4.67,20,20,0,0,1-4.43-6.77,21.7,21.7,0,0,1-1.51-8.06,25.12,25.12,0,0,1,1.47-8.61,19.87,19.87,0,0,1,4.39-7.09A21.27,21.27,0,0,1,288,17.26a28.33,28.33,0,0,1,19.82,0A21.35,21.35,0,0,1,315,22.05,19.81,19.81,0,0,1,319.37,29a23.49,23.49,0,0,1,1.47,8.26q0,1.18-.12,2.43c-.08.82-.17,1.55-.28,2.19H291a5.91,5.91,0,0,0,2.47,4.82,8.61,8.61,0,0,0,4.87,1.48A10,10,0,0,0,303,47a5.61,5.61,0,0,0,2.91-3.11l12.84,3.67a20.19,20.19,0,0,1-7.85,8.21A24.86,24.86,0,0,1,297.88,59Zm6.7-26.23A7.81,7.81,0,0,0,302.35,28a7.17,7.17,0,0,0-9.41,0,7.76,7.76,0,0,0-2.24,4.78Z"/><path class="cls-2" d="M358.32,20.09a46.26,46.26,0,0,0-4.95-2.55,44.72,44.72,0,0,0-4.82-1.79,17.34,17.34,0,0,0-5.22-.84,7.16,7.16,0,0,0-3.31.64,2.21,2.21,0,0,0-1.24,2.15,2.45,2.45,0,0,0,.72,1.83,6.84,6.84,0,0,0,2.07,1.32A27.6,27.6,0,0,0,344.88,22c1.3.37,2.78.82,4.43,1.35A59.81,59.81,0,0,1,356.36,26a22.14,22.14,0,0,1,5.39,3.39,13,13,0,0,1,3.42,4.75,17.12,17.12,0,0,1,1.2,6.77,18,18,0,0,1-1.87,8.57A15.38,15.38,0,0,1,359.55,55a20.87,20.87,0,0,1-6.93,3,33.68,33.68,0,0,1-7.78.91,43.94,43.94,0,0,1-6.38-.48A54.21,54.21,0,0,1,332,57.09,58.88,58.88,0,0,1,325.75,55a38.68,38.68,0,0,1-5.55-2.72l6.7-13.63a46.35,46.35,0,0,0,5.82,3.11,40.07,40.07,0,0,0,5.78,2.15,23,23,0,0,0,6.58,1,6.73,6.73,0,0,0,3.55-.68,2.09,2.09,0,0,0,1-1.79,2.59,2.59,0,0,0-1-2,9.47,9.47,0,0,0-2.75-1.47c-1.17-.42-2.51-.85-4-1.28s-3.12-.93-4.82-1.51a42.05,42.05,0,0,1-6.46-2.75A17.64,17.64,0,0,1,326.1,30a12,12,0,0,1-2.59-4.27,16.52,16.52,0,0,1-.83-5.5A19.07,19.07,0,0,1,324.39,12a17,17,0,0,1,4.66-6,21,21,0,0,1,6.74-3.63,25.84,25.84,0,0,1,8-1.23,31.13,31.13,0,0,1,6.06.59,49.65,49.65,0,0,1,5.7,1.52,54.56,54.56,0,0,1,5.14,2c1.59.72,3,1.4,4.3,2Z"/><path class="cls-2" d="M411.58,44.65V58.2H371.23V1.59h39.63V15.15H386.78v8h20.57v12.6H386.78v8.93Z"/><path class="cls-2" d="M412.85,29.42a29.34,29.34,0,0,1,1.84-10.2,27.51,27.51,0,0,1,14-15.47A25.93,25.93,0,0,1,440.2,1.28a25.39,25.39,0,0,1,13.24,3.38,21.11,21.11,0,0,1,8.37,9l-11.88,8.46a10.46,10.46,0,0,0-1.87-3.43,10.1,10.1,0,0,0-2.52-2.16,9.4,9.4,0,0,0-2.87-1.11,13.81,13.81,0,0,0-2.79-.32,9.37,9.37,0,0,0-5.06,1.32,11.34,11.34,0,0,0-3.51,3.42,14.8,14.8,0,0,0-2,4.79,22.52,22.52,0,0,0-.64,5.3,20.73,20.73,0,0,0,.76,5.66,15.14,15.14,0,0,0,2.23,4.78,11.32,11.32,0,0,0,3.59,3.31A9.33,9.33,0,0,0,440,44.89a11.37,11.37,0,0,0,2.79-.36,9.17,9.17,0,0,0,2.75-1.2,9.88,9.88,0,0,0,2.4-2.15A10.3,10.3,0,0,0,449.69,38l12.68,7.58a16.29,16.29,0,0,1-3.63,5.58,22.85,22.85,0,0,1-5.54,4.14,28.92,28.92,0,0,1-13.48,3.43,23.53,23.53,0,0,1-10.84-2.51,27.12,27.12,0,0,1-8.49-6.66,31.44,31.44,0,0,1-5.54-9.4A29.94,29.94,0,0,1,412.85,29.42Z"/><path class="cls-2" d="M490.83,44.89a8.55,8.55,0,0,0,4.63-1.2,9.46,9.46,0,0,0,3.11-3.15,14.57,14.57,0,0,0,1.75-4.5,25,25,0,0,0,.56-5.34V1.59h15.55V30.7a38.91,38.91,0,0,1-1.52,11,24.06,24.06,0,0,1-4.7,8.89,22.19,22.19,0,0,1-8,5.9,27.58,27.58,0,0,1-11.36,2.15,27,27,0,0,1-11.6-2.27,22.15,22.15,0,0,1-7.93-6.1,24.58,24.58,0,0,1-4.55-8.89,39.37,39.37,0,0,1-1.43-10.72V1.59h15.55V30.7a25.63,25.63,0,0,0,.55,5.38,14.29,14.29,0,0,0,1.76,4.54,9.23,9.23,0,0,0,3.07,3.11A8.58,8.58,0,0,0,490.83,44.89Z"/><path class="cls-2" d="M523.28,58.2V1.59h26a17.24,17.24,0,0,1,7.65,1.72,19.93,19.93,0,0,1,6,4.46,21.16,21.16,0,0,1,3.95,6.3,19.06,19.06,0,0,1,1.43,7.14,20.22,20.22,0,0,1-2.15,9.21,18.89,18.89,0,0,1-6,7L573,58.2H555.41L544.65,40.82h-5.82V58.2Zm15.55-30.93h9.81a3.45,3.45,0,0,0,2.67-1.6,7.15,7.15,0,0,0,1.23-4.46,6.46,6.46,0,0,0-1.43-4.51,4.06,4.06,0,0,0-2.87-1.55h-9.41Z"/><path class="cls-2" d="M616.33,44.65V58.2H576V1.59h39.62V15.15H591.53v8H612.1v12.6H591.53v8.93Z"/><path class="cls-1" d="M240.37,90.16a14.08,14.08,0,0,1-5.82,1.08c-6.21,0-10.88-4-10.88-11.18,0-6.89,4.67-11.56,11.5-11.56a11.68,11.68,0,0,1,5.23,1l-.69,2.32a10.2,10.2,0,0,0-4.44-.92c-5.16,0-8.59,3.3-8.59,9.09,0,5.39,3.1,8.85,8.46,8.85a11.47,11.47,0,0,0,4.64-.91Z"/><path class="cls-1" d="M245.57,75.06,249,84.41c.36,1,.75,2.29,1,3.23h.07c.29-.94.62-2.15,1-3.3l3.14-9.28h3L253,86.34c-2,5.42-3.46,8.2-5.42,9.9A7.76,7.76,0,0,1,244,98.1l-.72-2.42a7.59,7.59,0,0,0,2.52-1.4,8.78,8.78,0,0,0,2.42-3.21,2.06,2.06,0,0,0,.23-.68,2.6,2.6,0,0,0-.2-.75l-5.85-14.58Z"/><path class="cls-1" d="M261.26,67.68h2.84v9.93h.06a5.92,5.92,0,0,1,5.39-2.91c3.93,0,6.7,3.27,6.67,8.08,0,5.65-3.56,8.46-7.09,8.46a5.61,5.61,0,0,1-5.29-3h-.1l-.13,2.62h-2.49c.07-1.08.14-2.68.14-4.09Zm2.84,16.86a4.93,4.93,0,0,0,.13,1A4.43,4.43,0,0,0,268.54,89c3,0,4.8-2.45,4.8-6.08,0-3.17-1.63-5.88-4.7-5.88a4.59,4.59,0,0,0-4.38,3.53,6.12,6.12,0,0,0-.16,1.18Z"/><path class="cls-1" d="M282.79,83.49c.07,3.89,2.55,5.49,5.42,5.49a10.54,10.54,0,0,0,4.38-.81l.49,2.06a12.8,12.8,0,0,1-5.26,1c-4.87,0-7.77-3.24-7.77-8s2.81-8.53,7.41-8.53c5.17,0,6.54,4.55,6.54,7.45a11.21,11.21,0,0,1-.1,1.34Zm8.43-2c0-1.83-.75-4.68-4-4.68-2.9,0-4.18,2.68-4.41,4.68Z"/><path class="cls-1" d="M298.9,80c0-1.86,0-3.47-.13-4.94h2.52l.1,3.11h.13a4.76,4.76,0,0,1,4.38-3.47,3.32,3.32,0,0,1,.81.1v2.71a4.67,4.67,0,0,0-1-.09c-2,0-3.46,1.53-3.85,3.69a7.61,7.61,0,0,0-.13,1.34v8.43H298.9Z"/><path class="cls-1" d="M318.9,87.42a10.14,10.14,0,0,0,5.1,1.43c2.91,0,4.61-1.53,4.61-3.75,0-2.06-1.18-3.24-4.15-4.38-3.59-1.28-5.82-3.14-5.82-6.24,0-3.43,2.85-6,7.13-6a10.06,10.06,0,0,1,4.86,1.07l-.78,2.32a8.81,8.81,0,0,0-4.18-1c-3,0-4.15,1.8-4.15,3.3,0,2.06,1.34,3.07,4.38,4.25,3.72,1.43,5.62,3.23,5.62,6.47s-2.52,6.37-7.71,6.37a11.38,11.38,0,0,1-5.62-1.44Z"/><path class="cls-1" d="M338.45,83.49c.06,3.89,2.55,5.49,5.42,5.49a10.54,10.54,0,0,0,4.38-.81l.49,2.06a12.8,12.8,0,0,1-5.26,1c-4.87,0-7.78-3.24-7.78-8s2.81-8.53,7.42-8.53c5.16,0,6.53,4.55,6.53,7.45a11.69,11.69,0,0,1-.09,1.34Zm8.43-2c0-1.83-.75-4.68-4-4.68-2.91,0-4.18,2.68-4.41,4.68Z"/><path class="cls-1" d="M365.83,90.29a10.51,10.51,0,0,1-4.54.95c-4.77,0-7.87-3.27-7.87-8.11s3.33-8.39,8.49-8.39a9.52,9.52,0,0,1,4,.82l-.66,2.22a6.54,6.54,0,0,0-3.33-.76c-3.63,0-5.59,2.68-5.59,6,0,3.66,2.36,5.92,5.49,5.92a8.14,8.14,0,0,0,3.53-.79Z"/><path class="cls-1" d="M383.77,86.57c0,1.63,0,3.07.13,4.31h-2.54l-.17-2.58h-.06a6,6,0,0,1-5.23,2.94c-2.48,0-5.46-1.37-5.46-6.93V75.06h2.88v8.76c0,3,.91,5,3.53,5a4.18,4.18,0,0,0,3.79-2.61,4.32,4.32,0,0,0,.26-1.47V75.06h2.87Z"/><path class="cls-1" d="M389.89,80c0-1.86,0-3.47-.13-4.94h2.51l.1,3.11h.13a4.76,4.76,0,0,1,4.38-3.47,3.35,3.35,0,0,1,.82.1v2.71a4.74,4.74,0,0,0-1-.09c-2,0-3.47,1.53-3.86,3.69a8.7,8.7,0,0,0-.13,1.34v8.43h-2.84Z"/><path class="cls-1" d="M405.25,70.62a1.78,1.78,0,0,1-3.56,0,1.75,1.75,0,0,1,1.79-1.8A1.71,1.71,0,0,1,405.25,70.62Zm-3.2,20.26V75.06h2.87V90.88Z"/><path class="cls-1" d="M414.5,71.27v3.79h4.11v2.19H414.5v8.53c0,2,.55,3.07,2.15,3.07a5.45,5.45,0,0,0,1.67-.19l.13,2.15a6.92,6.92,0,0,1-2.55.43A4,4,0,0,1,412.8,90c-.82-.85-1.11-2.26-1.11-4.12V77.25h-2.45V75.06h2.45v-2.9Z"/><path class="cls-1" d="M424.53,75.06,428,84.41c.36,1,.75,2.29,1,3.23h.06c.3-.94.62-2.15,1-3.3l3.14-9.28h3L432,86.34c-2.06,5.42-3.47,8.2-5.43,9.9A7.76,7.76,0,0,1,423,98.1l-.72-2.42a7.59,7.59,0,0,0,2.52-1.4,8.68,8.68,0,0,0,2.42-3.21,2.06,2.06,0,0,0,.23-.68,2.6,2.6,0,0,0-.2-.75l-5.85-14.58Z"/><path class="cls-1" d="M459.59,87.09a21.84,21.84,0,0,0,.27,3.79h-2.62l-.23-2h-.09a5.92,5.92,0,0,1-4.84,2.35,4.51,4.51,0,0,1-4.84-4.54c0-3.83,3.4-5.92,9.51-5.88v-.33c0-1.31-.36-3.66-3.59-3.66A7.88,7.88,0,0,0,449,78l-.65-1.9a9.78,9.78,0,0,1,5.19-1.41c4.84,0,6,3.31,6,6.48Zm-2.77-4.28c-3.14-.07-6.7.49-6.7,3.56a2.54,2.54,0,0,0,2.71,2.74,3.92,3.92,0,0,0,3.82-2.64,3,3,0,0,0,.17-.92Z"/><path class="cls-1" d="M465.19,87.94A7.55,7.55,0,0,0,469,89.08c2.09,0,3.07-1,3.07-2.35s-.82-2.12-2.94-2.91c-2.85-1-4.19-2.58-4.19-4.48,0-2.54,2.06-4.64,5.46-4.64a7.82,7.82,0,0,1,3.89,1l-.72,2.09a6.07,6.07,0,0,0-3.24-.92c-1.69,0-2.64,1-2.64,2.16s.95,1.89,3,2.68c2.75,1,4.15,2.42,4.15,4.77,0,2.78-2.15,4.77-5.91,4.77a9,9,0,0,1-4.44-1.11Z"/><path class="cls-1" d="M499.24,87.09a21.9,21.9,0,0,0,.26,3.79h-2.62l-.22-2h-.1a5.89,5.89,0,0,1-4.84,2.35,4.5,4.5,0,0,1-4.83-4.54c0-3.83,3.39-5.92,9.5-5.88v-.33c0-1.31-.35-3.66-3.59-3.66A7.88,7.88,0,0,0,488.68,78l-.65-1.9a9.81,9.81,0,0,1,5.19-1.41c4.84,0,6,3.31,6,6.48Zm-2.78-4.28c-3.14-.07-6.7.49-6.7,3.56a2.54,2.54,0,0,0,2.71,2.74,3.94,3.94,0,0,0,3.83-2.64,3.29,3.29,0,0,0,.16-.92Z"/><path class="cls-1" d="M513.19,87.42a10.14,10.14,0,0,0,5.1,1.43c2.91,0,4.61-1.53,4.61-3.75,0-2.06-1.18-3.24-4.15-4.38-3.6-1.28-5.82-3.14-5.82-6.24,0-3.43,2.85-6,7.12-6a10.07,10.07,0,0,1,4.87,1.07l-.78,2.32a8.81,8.81,0,0,0-4.18-1c-3,0-4.15,1.8-4.15,3.3,0,2.06,1.34,3.07,4.38,4.25,3.72,1.43,5.62,3.23,5.62,6.47s-2.52,6.37-7.71,6.37a11.45,11.45,0,0,1-5.63-1.44Z"/><path class="cls-1" d="M532.74,83.49c.06,3.89,2.54,5.49,5.42,5.49a10.54,10.54,0,0,0,4.38-.81l.49,2.06a12.84,12.84,0,0,1-5.26,1c-4.87,0-7.78-3.24-7.78-8s2.81-8.53,7.42-8.53c5.16,0,6.53,4.55,6.53,7.45a11.69,11.69,0,0,1-.09,1.34Zm8.43-2c0-1.83-.76-4.68-4-4.68-2.91,0-4.18,2.68-4.41,4.68Z"/><path class="cls-1" d="M548.85,80c0-1.86,0-3.47-.13-4.94h2.51l.1,3.11h.13a4.76,4.76,0,0,1,4.38-3.47,3.35,3.35,0,0,1,.82.1v2.71a4.74,4.74,0,0,0-1-.09c-2,0-3.47,1.53-3.86,3.69a8.7,8.7,0,0,0-.13,1.34v8.43h-2.84Z"/><path class="cls-1" d="M562.8,75.06,565.91,84c.52,1.44.94,2.75,1.27,4h.1c.36-1.3.82-2.61,1.34-4l3.07-8.89h3l-6.21,15.82h-2.75l-6-15.82Z"/><path class="cls-1" d="M582,70.62a1.78,1.78,0,0,1-3.56,0,1.76,1.76,0,0,1,1.8-1.8A1.71,1.71,0,0,1,582,70.62Zm-3.2,20.26V75.06h2.88V90.88Z"/><path class="cls-1" d="M599,90.29a10.51,10.51,0,0,1-4.54.95c-4.77,0-7.88-3.27-7.88-8.11s3.34-8.39,8.5-8.39a9.52,9.52,0,0,1,4,.82l-.66,2.22a6.54,6.54,0,0,0-3.33-.76c-3.63,0-5.59,2.68-5.59,6,0,3.66,2.35,5.92,5.49,5.92a8.14,8.14,0,0,0,3.53-.79Z"/><path class="cls-1" d="M605.12,83.49c.07,3.89,2.55,5.49,5.43,5.49a10.54,10.54,0,0,0,4.38-.81l.49,2.06a12.9,12.9,0,0,1-5.27,1c-4.86,0-7.77-3.24-7.77-8s2.81-8.53,7.42-8.53c5.16,0,6.53,4.55,6.53,7.45a11.21,11.21,0,0,1-.1,1.34Zm8.43-2c0-1.83-.75-4.68-4-4.68-2.91,0-4.19,2.68-4.41,4.68Z"/></g></g></svg>